<?xml version="1.0" standalone="no"?>
<svg version="1.0" xmlns="http://www.w3.org/2000/svg"
 width="32" height="32" viewBox="0 0 2600.000000 2600.000000"
 preserveAspectRatio="xMidYMid meet">
<g transform="translate(0.000000,2600.000000) scale(0.100000,-0.100000)"
fill="#3b82f6" stroke="none">
<!-- Simplified main shape for favicon visibility -->
<path d="M8648 19194 c-694 -125 -1435 -869 -1875 -1884 -208 -477 -343 -1010
-405 -1590 -19 -188 -17 -667 6 -855 77 -660 303 -1217 658 -1630 165 -191
317 -312 574 -458 274 -155 403 -258 455 -363 37 -76 33 -173 -11 -283 -19
-46 -43 -98 -55 -115 -11 -17 -86 -80 -167 -141 -80 -60 -173 -134 -207 -163
-139 -121 -256 -307 -301 -477 -90 -340 29 -795 347 -1324 154 -257 284 -430
453 -605 263 -271 544 -452 870 -560 380 -126 724 -155 1415 -121 438 22 710
17 859 -15 154 -33 201 -56 323 -162 332 -287 622 -447 933 -514 118 -25 353
-26 470 -1 279 60 517 193 807 449 130 115 271 261 463 477 243 276 383 404
585 537 214 140 402 231 927 448 569 234 742 312 1133 506 545 271 677 352
836 510 296 295 468 723 531 1320 15 146 15 612 -1 795 -69 810 -294 1752
-670 2802 -136 381 -170 554 -178 909 -6 236 2 353 33 504 42 203 129 369 236
450 78 58 124 70 313 80 279 15 520 64 810 164 200 68 482 193 528 234 22 20
22 64 -1 92 -16 20 -33 24 -120 31 -237 20 -420 80 -587 192 -33 22 -136 118
-230 212 -135 136 -193 187 -279 244 -339 225 -765 342 -1128 311 -568 -49
-1051 -389 -1492 -1050 -190 -283 -379 -644 -546 -1040 -198 -466 -354 -715
-615 -975 -414 -415 -936 -654 -1638 -750 -486 -66 -858 -20 -1202 151 -345
171 -618 452 -795 818 -128 266 -184 492 -210 851 -62 847 -467 1561 -1050
1851 -115 57 -300 118 -419 138 -114 19 -278 19 -383 0z"/>
</g>
</svg> 